<svg width="49" height="56" viewBox="0 0 49 56" fill="none" xmlns="http://www.w3.org/2000/svg">
<path fill-rule="evenodd" clip-rule="evenodd" d="M12.2352 13.5317L29.9786 3.28715L24.285 0L12.5456 6.77841L6.5426 10.2445L0.806152 13.5559L6.49973 16.8431L9.3973 18.5169L12.5456 20.3334L15.5392 22.0622L18.4377 23.7361L24.285 27.1118L30.0215 23.8004L36.0245 20.3334L47.7648 13.5559L41.9166 10.1793L24.1732 20.4238L21.2756 18.7509L39.019 8.50634L36.0245 6.77841L32.8771 4.96009L15.1338 15.2046L12.2352 13.5317Z" fill="url(#paint0_linear_305_19)"/>
<path fill-rule="evenodd" clip-rule="evenodd" d="M17.3864 35.1988L6.09247 28.6748V25.4249L17.3864 31.9489V35.1988ZM0 35.0627V41.9791L6.09247 45.4964V35.3227L17.3864 41.8467L23.4789 45.3641V28.4232L17.3864 24.9049L11.7394 21.6429L6.09247 18.3809L0 14.8635V35.059V35.0627Z" fill="url(#paint1_linear_305_19)"/>
<path fill-rule="evenodd" clip-rule="evenodd" d="M42.4973 25.3894L48.572 21.8823V14.8672L42.4973 18.3752L36.8326 21.6456L31.1679 24.916L25.0922 28.4231V35.4382V38.4588V45.4236L31.1679 41.9165L42.4973 35.3758V38.3964L31.1679 44.9371L25.0922 48.4452L24.2646 48.9224L23.479 48.4694L21.6485 47.4116L17.3865 44.9521L8.36475 39.7431V46.8086L11.7395 48.7574L17.3865 52.0175L23.479 55.5349L24.2851 56L25.0922 55.5349L31.1679 52.0269L36.8326 48.7574L42.4973 45.487L48.572 41.979V34.8893V31.8687V28.4231V24.9039L42.4973 28.411L31.1679 34.9517V31.9302L42.4973 25.3894Z" fill="url(#paint2_linear_305_19)"/>
<defs>
<linearGradient id="paint0_linear_305_19" x1="24.286" y1="27.1118" x2="24.286" y2="0" gradientUnits="userSpaceOnUse">
<stop stop-color="#8257E5"/>
<stop offset="1" stop-color="#8257E5"/>
</linearGradient>
<linearGradient id="paint1_linear_305_19" x1="11.7394" y1="45.4964" x2="11.7394" y2="14.8673" gradientUnits="userSpaceOnUse">
<stop stop-color="#8257E5"/>
<stop offset="1" stop-color="#8257E5"/>
</linearGradient>
<linearGradient id="paint2_linear_305_19" x1="28.4679" y1="56" x2="28.4679" y2="14.8672" gradientUnits="userSpaceOnUse">
<stop stop-color="#8257E5"/>
<stop offset="1" stop-color="#8257E5"/>
</linearGradient>
</defs>
</svg>
