<svg width="80" height="78" viewBox="0 0 80 78" fill="none" xmlns="http://www.w3.org/2000/svg">
<path fill-rule="evenodd" clip-rule="evenodd" d="M46.3641 1.28198C45.817 1.28198 45.309 1.39922 44.8401 1.55552C45.8365 2.21983 46.3836 3.09907 46.6572 4.09553C46.6767 4.2323 46.7158 4.33 46.7353 4.46676C46.7549 4.58399 46.7744 4.70122 46.7744 4.81846C46.8526 6.53784 46.325 6.75277 45.9538 7.76877C45.3871 9.07786 45.5434 10.4846 46.2273 11.6179C46.2859 11.7546 46.3641 11.9109 46.4618 12.0477C45.7193 7.10446 49.8419 6.362 50.6039 4.81846C50.6625 3.4703 49.5489 2.57152 48.6696 1.94629C47.8295 1.43829 47.0675 1.28198 46.3641 1.28198ZM52.5773 2.39568C52.4991 2.84506 52.5578 2.72783 52.5383 2.9623C52.5187 3.1186 52.5187 3.31399 52.4992 3.4703C52.4602 3.62661 52.421 3.78291 52.3624 3.93923C52.3234 4.09553 52.2648 4.25184 52.2062 4.40814C52.128 4.56446 52.0694 4.70122 51.9912 4.85753C51.9326 4.93572 51.8935 5.01384 51.8349 5.092C51.7959 5.15061 51.7567 5.20923 51.7177 5.26784C51.62 5.40462 51.5223 5.54138 51.4246 5.65861C51.3074 5.77585 51.2097 5.91261 51.0729 6.01031C51.0729 6.02987 51.0729 6.02987 51.0729 6.02987C50.9557 6.12757 50.8384 6.2448 50.7017 6.34249C50.2914 6.6551 49.8225 6.88956 49.3926 7.18264C49.2558 7.28033 49.1191 7.35849 49.0018 7.47572C48.8651 7.57341 48.7478 7.6711 48.6306 7.78834C48.4938 7.90557 48.3961 8.0228 48.2789 8.15957C48.1812 8.27681 48.064 8.41357 47.9858 8.55034C47.8881 8.68711 47.7904 8.82388 47.7123 8.96065C47.6341 9.11695 47.5755 9.25373 47.4974 9.41003C47.4388 9.56634 47.3801 9.70311 47.3411 9.85942C47.2824 10.0353 47.2434 10.1916 47.2043 10.3479C47.1847 10.4261 47.1847 10.5237 47.1652 10.6019C47.1456 10.6801 47.1456 10.7582 47.1262 10.8363C47.1262 10.9927 47.1066 11.1685 47.1066 11.3248C47.1066 11.442 47.1066 11.5593 47.1262 11.6765C47.1262 11.8328 47.1458 11.9891 47.1848 12.165C47.2044 12.3213 47.2434 12.4776 47.2825 12.6339C47.3411 12.7902 47.3802 12.9465 47.4388 13.1028C47.4779 13.2005 47.5365 13.2982 47.5756 13.3763L43.0817 11.6374C42.3197 11.4225 41.5773 11.2271 40.8153 11.0513C40.4049 10.9536 39.9946 10.8559 39.5843 10.7582C38.412 10.5237 37.2202 10.3479 36.0283 10.2307C35.9893 10.2307 35.9697 10.2111 35.9306 10.2111C34.7583 10.0939 33.6055 10.0352 32.4332 10.0352C31.5735 10.0352 30.7138 10.0743 29.8737 10.1329C28.6818 10.2111 27.49 10.3674 26.2981 10.5628C26.0051 10.6018 25.712 10.6605 25.4189 10.7191C24.8132 10.8363 24.2271 10.9731 23.6604 11.1099C23.3674 11.1881 23.0743 11.2662 22.7812 11.3443C22.4881 11.4616 22.2146 11.5983 21.941 11.7156C21.7261 11.8132 21.5112 11.9109 21.2963 12.0086C21.2572 12.0282 21.2181 12.0282 21.1986 12.0477C21.0032 12.1454 20.8273 12.2235 20.6515 12.3212C20.5929 12.3408 20.5538 12.3603 20.5147 12.3798C20.2998 12.4775 20.0849 12.5948 19.909 12.6925C19.7723 12.7511 19.6355 12.8292 19.5183 12.8878C19.4597 12.9269 19.3815 12.966 19.3424 12.9855C19.1666 13.0832 18.9907 13.1809 18.8344 13.2786C18.6586 13.3763 18.5023 13.474 18.3655 13.5717C18.2287 13.6694 18.092 13.7475 17.9747 13.8452C17.9552 13.8648 17.9357 13.8648 17.9161 13.8843C17.7989 13.9625 17.6621 14.0601 17.5449 14.1578C17.5449 14.1578 17.5253 14.1774 17.5058 14.1969C17.4081 14.275 17.3104 14.3532 17.2128 14.4313C17.1737 14.4509 17.1346 14.4899 17.0955 14.5095C16.9978 14.5877 16.9001 14.6854 16.8025 14.7635C16.7829 14.8026 16.7438 14.8221 16.7243 14.8417C16.607 14.9589 16.4898 15.0566 16.3726 15.1738C16.353 15.1738 16.353 15.1934 16.3335 15.2129C16.2163 15.3106 16.0991 15.4278 15.9818 15.545C15.9623 15.5646 15.9623 15.5841 15.9428 15.5841C15.8451 15.6818 15.7474 15.7795 15.6497 15.8967C15.6107 15.9358 15.552 15.9749 15.5129 16.0139C15.4152 16.1312 15.298 16.2484 15.1808 16.3656C15.1612 16.4047 15.1222 16.4243 15.1026 16.4633C14.9463 16.6196 14.8095 16.7759 14.6532 16.9323C14.6336 16.9518 14.6142 16.9713 14.5946 16.9909C14.282 17.323 13.9498 17.6552 13.5981 17.9483C13.2464 18.2609 12.8752 18.5539 12.504 18.8079C12.1132 19.0815 11.742 19.3159 11.3317 19.5504C10.9409 19.7653 10.5306 19.9607 10.1007 20.1366C9.69042 20.3124 9.26058 20.4687 8.83074 20.6055C8.01011 20.7813 7.16996 21.1135 6.44703 21.1721C6.29072 21.1721 6.11488 21.2112 5.95857 21.2307C5.78272 21.2698 5.62642 21.3089 5.47011 21.348C5.3138 21.4066 5.15749 21.4652 5.00118 21.5238C4.84488 21.5824 4.68857 21.6606 4.53226 21.7387C4.39549 21.8364 4.23918 21.9146 4.10241 22.0123C3.96565 22.11 3.82887 22.2272 3.71164 22.3444C3.57488 22.4421 3.4381 22.5789 3.32087 22.6961C3.20364 22.8329 3.08641 22.9501 2.98872 23.0869C2.89103 23.2432 2.77379 23.38 2.69564 23.5363C2.59795 23.673 2.50026 23.8293 2.4221 23.9856C2.34391 24.1615 2.26579 24.3178 2.20718 24.4937C2.14856 24.65 2.08994 24.8258 2.03133 25.0017C1.99228 25.158 1.95314 25.3143 1.93364 25.4706C1.93364 25.4902 1.91407 25.5096 1.91407 25.5292C1.87502 25.705 1.87502 25.9395 1.85545 26.0568C1.83588 26.1935 1.81641 26.3107 1.81641 26.4475C1.81641 26.5257 1.81641 26.6234 1.83597 26.7015C1.85554 26.8383 1.87502 26.9555 1.91416 27.0728C1.95321 27.19 1.99235 27.3072 2.05092 27.4244C2.05092 27.444 2.05092 27.444 2.05092 27.444C2.10954 27.5612 2.1877 27.6785 2.26585 27.7957C2.34403 27.9129 2.42216 28.0302 2.51985 28.1474C2.61754 28.2451 2.73477 28.3623 2.85201 28.46C2.96924 28.5772 3.08647 28.6749 3.22323 28.7726C3.69216 29.1829 3.80939 29.3197 4.41509 29.6323C4.51278 29.6909 4.61048 29.73 4.72771 29.7886C4.74728 29.7886 4.76676 29.8082 4.78632 29.8082C4.78632 29.8472 4.78632 29.8668 4.8059 29.9059C4.82547 30.0622 4.86451 30.2185 4.90359 30.3748C4.94263 30.5507 5.00129 30.707 5.0599 30.8437C5.11852 30.961 5.15759 31.0782 5.21621 31.1954C5.23578 31.2345 5.25526 31.2736 5.27482 31.2931C5.35301 31.4494 5.43113 31.5862 5.50928 31.723C5.60698 31.8597 5.70467 31.9965 5.80236 32.1333C5.90005 32.2505 6.01728 32.3873 6.13451 32.5045C6.25175 32.6218 6.36898 32.7194 6.50575 32.8367C6.50575 32.8367 6.52532 32.8563 6.5448 32.8563C6.66203 32.954 6.77926 33.0517 6.89649 33.1298C7.03326 33.2275 7.17003 33.3056 7.32634 33.3838C7.46311 33.462 7.61942 33.5401 7.77572 33.5987C7.89296 33.6573 8.02972 33.6964 8.16649 33.7355C8.18607 33.7551 8.20554 33.7551 8.24468 33.7746C8.32286 33.7941 8.42052 33.8136 8.49867 33.8332C8.44006 34.8882 8.42049 35.8847 8.57686 36.2364C8.7527 36.6272 9.6124 35.4353 10.4721 34.0676C10.3549 35.4158 10.2767 36.9984 10.4721 37.4673C10.687 37.9558 11.8593 36.4318 12.8753 34.7515C26.7281 31.5472 39.3696 41.121 40.6982 54.6417C40.4442 52.5315 37.8456 51.3592 36.6537 51.6523C36.0676 53.0981 35.0711 54.9543 33.4689 56.1071C33.6057 54.8175 33.5471 53.4889 33.2736 52.1994C32.8437 53.9969 32.0035 55.6772 30.8508 57.1231C28.9946 57.2598 27.1384 56.3611 26.1615 55.0129C26.0833 54.9543 26.0638 54.8371 26.0052 54.7589C25.9466 54.6221 25.888 54.4854 25.8489 54.3486C25.7903 54.2118 25.7512 54.0751 25.7317 53.9383C25.7121 53.8015 25.7121 53.6648 25.7121 53.5084C25.7121 53.4108 25.7121 53.3131 25.7121 53.2154C25.7317 53.0786 25.7707 52.9418 25.8098 52.8051C25.8488 52.6683 25.888 52.5315 25.9466 52.3947C26.0247 52.258 26.0833 52.1212 26.181 51.9845C26.5132 51.0466 26.5132 50.2846 25.9075 49.8352C25.7903 49.757 25.673 49.6984 25.5362 49.6398C25.4581 49.6203 25.3604 49.5812 25.2823 49.5616C25.2236 49.5421 25.1846 49.5226 25.1259 49.503C24.9892 49.464 24.8524 49.4248 24.7156 49.4053C24.5789 49.3663 24.4421 49.3467 24.3053 49.3467C24.1686 49.3271 24.0122 49.3077 23.8755 49.3077C23.7778 49.3077 23.6801 49.3272 23.5824 49.3272C23.4261 49.3272 23.2893 49.3468 23.1526 49.3858C23.0158 49.4054 22.879 49.4249 22.7422 49.464C22.6055 49.5031 22.4687 49.5422 22.3319 49.6008C22.1952 49.6594 22.0779 49.718 21.9412 49.7766C21.8239 49.8353 21.7067 49.9134 21.5699 49.972C17.0175 52.9419 19.7333 59.8976 22.8399 61.9101C21.6676 62.125 20.4758 62.379 20.1436 62.633C20.1241 62.6526 20.1046 62.672 20.1046 62.672C20.9447 63.18 21.824 63.6099 22.7423 63.9811C23.9927 64.3914 25.3214 64.7627 25.9075 64.919V64.9385C27.5292 65.2707 29.1705 65.3879 30.8312 65.2902C39.4868 64.6845 46.5793 58.1 47.8688 49.4249C47.9079 49.6008 47.947 49.7571 47.986 49.9329C48.0447 50.2846 48.1228 50.6559 48.1619 51.0271C48.1619 51.0271 48.1619 51.0271 48.1619 51.0467C48.2009 51.2225 48.2205 51.3984 48.2401 51.5547C48.2401 51.5937 48.2401 51.6133 48.2401 51.6329C48.2597 51.8087 48.2791 51.9846 48.2791 52.1409C48.2987 52.3558 48.3182 52.5707 48.3182 52.7857C48.3182 52.8834 48.3182 52.981 48.3182 53.0983C48.3182 53.196 48.3377 53.3132 48.3377 53.4109C48.3377 53.5281 48.3182 53.6453 48.3182 53.7626C48.3182 53.8603 48.3182 53.958 48.3182 54.0361C48.3182 54.1729 48.2986 54.2901 48.2986 54.4269C48.2986 54.5051 48.2986 54.5832 48.279 54.6809C48.279 54.8177 48.2594 54.9544 48.2594 55.1107C48.2399 55.1694 48.2399 55.228 48.2399 55.2866C48.2203 55.4429 48.2008 55.5797 48.1812 55.736C48.1812 55.7946 48.1812 55.8532 48.1617 55.9118C48.1421 56.1072 48.1031 56.2831 48.0835 56.4784V56.498V56.5176C48.0445 56.6934 48.0053 56.8888 47.9663 57.0647C47.9663 57.0842 47.9663 57.1037 47.9663 57.1233C47.9272 57.2991 47.8881 57.475 47.849 57.6508C47.849 57.6704 47.8295 57.7094 47.8295 57.729C47.7904 57.9049 47.7513 58.0807 47.6927 58.2566C47.6927 58.2761 47.6927 58.2956 47.6927 58.3152C47.6341 58.5105 47.5755 58.6864 47.5364 58.8622C47.5168 58.8818 47.5168 58.9013 47.5168 58.9013C47.4582 59.0967 47.3996 59.2921 47.341 59.4874C47.2628 59.6828 47.2042 59.8587 47.1261 60.0541C47.0479 60.2494 46.9893 60.4448 46.9111 60.6207C46.833 60.8161 46.7548 60.9919 46.6767 61.1873H46.6571C46.5789 61.3631 46.5008 61.5585 46.4031 61.7344C46.3835 61.793 46.364 61.8321 46.3445 61.8711C46.3249 61.8907 46.3249 61.9102 46.3054 61.9298C45.0354 64.4893 43.1597 66.7362 40.8151 68.4947C40.6588 68.5924 40.5025 68.7096 40.3462 68.8269C40.3071 68.8659 40.2485 68.8855 40.2094 68.9245C40.0726 69.0222 39.9359 69.1199 39.7796 69.2176L39.8382 69.3349H39.8577C40.1313 69.2958 40.4048 69.2567 40.6783 69.2176H40.6979C41.2059 69.1394 41.7139 69.0418 42.2219 68.9441C42.3587 68.9245 42.515 68.8855 42.6518 68.8464C42.7495 68.8268 42.8276 68.8073 42.9253 68.7878C43.0621 68.7682 43.1988 68.7291 43.3356 68.7096C43.4528 68.6705 43.5701 68.651 43.6873 68.6119C45.6412 68.143 47.5364 67.4982 49.3535 66.7362C46.2469 70.9761 42.0851 74.3953 37.2201 76.6422C39.467 76.4859 41.7139 76.1147 43.8827 75.4895C51.7567 73.1644 58.3803 67.8694 62.3466 60.7379C61.5455 65.2513 59.748 69.5497 57.0907 73.3011C58.986 72.0507 60.7249 70.6048 62.3075 68.9636C66.6841 64.3916 69.5563 58.5886 70.5332 52.3558C71.1975 55.4429 71.3929 58.6277 71.0998 61.7734C85.2066 42.0981 72.2721 21.6999 66.86 16.3268C66.8404 16.2878 66.8209 16.2682 66.8209 16.2291C66.8013 16.2487 66.8013 16.2487 66.8013 16.2682C66.8013 16.2486 66.8013 16.2486 66.7818 16.2291C66.7818 16.4636 66.7622 16.698 66.7427 16.9325C66.6841 17.3819 66.6255 17.8117 66.5473 18.2416C66.4497 18.6714 66.3324 19.1013 66.2152 19.5311C66.0784 19.9414 65.9221 20.3713 65.7463 20.7816C65.5704 21.1724 65.375 21.5827 65.1601 21.9734C64.9452 22.3447 64.7107 22.7354 64.4567 23.0871C64.2027 23.4584 63.9292 23.8101 63.6556 24.1422C63.3626 24.4939 63.05 24.8065 62.7373 25.1191C62.542 25.295 62.3661 25.4513 62.1707 25.6076C62.0144 25.7444 61.8776 25.8616 61.7213 25.9984C61.3696 26.2719 61.0179 26.5259 60.6272 26.7604C60.2559 26.9948 59.8652 27.2293 59.4744 27.4247C59.0641 27.6201 58.6538 27.7959 58.2435 27.9718C57.8332 28.1281 57.4033 28.2648 56.9735 28.3821C56.5436 28.4993 56.0942 28.597 55.6644 28.6752C55.215 28.7533 54.7656 28.7924 54.3358 28.8315C54.0232 28.851 53.7106 28.8705 53.3979 28.8705C52.9485 28.8705 52.4992 28.8315 52.0693 28.7923C51.6199 28.7533 51.1705 28.6946 50.7407 28.5969C50.2913 28.5188 49.8615 28.4015 49.4316 28.2648H49.412C49.8419 28.2257 50.2717 28.1866 50.7016 28.1085C51.151 28.0303 51.5808 27.9326 52.0107 27.8154C52.4405 27.6982 52.8704 27.5614 53.2807 27.4051C53.7105 27.2488 54.1208 27.0534 54.5116 26.858C54.9219 26.6626 55.2931 26.4477 55.6839 26.2132C56.0551 25.9592 56.4264 25.7052 56.7781 25.4317C57.1298 25.1582 57.4619 24.8651 57.7745 24.5525C58.1067 24.2594 58.3998 23.9272 58.6928 23.5951C58.9859 23.2434 59.2595 22.8917 59.5135 22.54C59.5525 22.4814 59.5917 22.4032 59.6307 22.3446C59.8261 22.032 60.0215 21.7194 60.1973 21.4068C60.4122 21.016 60.6076 20.6252 60.7835 20.2149C60.9593 19.8046 61.1156 19.3943 61.2524 18.9644C61.3892 18.5541 61.4869 18.1243 61.5845 17.6944C61.6627 17.2451 61.7408 16.8152 61.7799 16.3854C61.819 15.936 61.8581 15.4866 61.8581 15.0567C61.8581 14.7441 61.8385 14.4315 61.8191 14.1189C61.78 13.6695 61.7214 13.2397 61.6628 12.8098C61.5846 12.3604 61.4869 11.9306 61.3697 11.5007C61.2329 11.0904 61.0961 10.6606 60.9398 10.2503C60.7835 9.83996 60.5881 9.42965 60.3927 9.03888C60.1778 8.64811 59.9629 8.25734 59.7284 7.88611C59.4744 7.51488 59.2204 7.16319 58.9469 6.81149C58.6538 6.47934 58.3607 6.14718 58.0481 5.81503C57.8918 5.65872 57.716 5.48287 57.5401 5.32657C56.6609 4.64272 55.7426 3.99794 54.8243 3.41179C54.6875 3.33361 54.5703 3.27502 54.4335 3.2164C53.7887 2.8061 53.183 2.59117 52.5774 2.39579L52.5773 2.39568Z" fill="#E0234E"/>
</svg>
